<mxfile host="app.diagrams.net" modified="2023-04-24T15:48:20.380Z" agent="Mozilla/5.0 (Macintosh; Intel Mac OS X 10_15_7) AppleWebKit/537.36 (KHTML, like Gecko) Chrome/112.0.0.0 Safari/537.36" etag="L11x0_yc3iYxvRJZ_k0O" version="21.2.1" type="device">
  <diagram name="第 1 页" id="uQdc1rxMQXhxR_c8LN7T">
    <mxGraphModel dx="767" dy="483" grid="0" gridSize="10" guides="1" tooltips="1" connect="1" arrows="1" fold="1" page="1" pageScale="1" pageWidth="1654" pageHeight="2336" math="0" shadow="0">
      <root>
        <mxCell id="0" />
        <mxCell id="1" parent="0" />
        <mxCell id="pzJW1ZrKXzT_B_N0F71h-1" value="共享资源被当做整体" style="rounded=0;whiteSpace=wrap;html=1;fontFamily=Songti TC;" vertex="1" parent="1">
          <mxGeometry x="120" y="100" width="120" height="60" as="geometry" />
        </mxCell>
        <mxCell id="pzJW1ZrKXzT_B_N0F71h-2" value="" style="rounded=0;whiteSpace=wrap;html=1;fontFamily=Songti TC;" vertex="1" parent="1">
          <mxGeometry x="120" y="241" width="120" height="60" as="geometry" />
        </mxCell>
        <mxCell id="pzJW1ZrKXzT_B_N0F71h-3" value="" style="endArrow=classic;html=1;rounded=0;entryX=0;entryY=0.25;entryDx=0;entryDy=0;fontFamily=Songti TC;" edge="1" parent="1" target="pzJW1ZrKXzT_B_N0F71h-1">
          <mxGeometry width="50" height="50" relative="1" as="geometry">
            <mxPoint x="40" y="115" as="sourcePoint" />
            <mxPoint x="100" y="105" as="targetPoint" />
          </mxGeometry>
        </mxCell>
        <mxCell id="pzJW1ZrKXzT_B_N0F71h-4" value="" style="endArrow=classic;html=1;rounded=0;entryX=0;entryY=0.75;entryDx=0;entryDy=0;fontFamily=Songti TC;" edge="1" parent="1" target="pzJW1ZrKXzT_B_N0F71h-1">
          <mxGeometry width="50" height="50" relative="1" as="geometry">
            <mxPoint x="40" y="145" as="sourcePoint" />
            <mxPoint x="110" y="140" as="targetPoint" />
          </mxGeometry>
        </mxCell>
        <mxCell id="pzJW1ZrKXzT_B_N0F71h-5" value="" style="endArrow=classic;html=1;rounded=0;entryX=0;entryY=0.25;entryDx=0;entryDy=0;fontFamily=Songti TC;" edge="1" parent="1">
          <mxGeometry width="50" height="50" relative="1" as="geometry">
            <mxPoint x="240" y="114.72" as="sourcePoint" />
            <mxPoint x="320" y="114.72" as="targetPoint" />
          </mxGeometry>
        </mxCell>
        <mxCell id="pzJW1ZrKXzT_B_N0F71h-6" value="" style="endArrow=classic;html=1;rounded=0;entryX=0;entryY=0.75;entryDx=0;entryDy=0;fontFamily=Songti TC;" edge="1" parent="1">
          <mxGeometry width="50" height="50" relative="1" as="geometry">
            <mxPoint x="240" y="144.72" as="sourcePoint" />
            <mxPoint x="320" y="144.72" as="targetPoint" />
          </mxGeometry>
        </mxCell>
        <mxCell id="pzJW1ZrKXzT_B_N0F71h-7" value="执行流" style="text;html=1;align=center;verticalAlign=middle;resizable=0;points=[];autosize=1;strokeColor=none;fillColor=none;fontFamily=Songti TC;" vertex="1" parent="1">
          <mxGeometry x="49.5" y="83" width="54" height="26" as="geometry" />
        </mxCell>
        <mxCell id="pzJW1ZrKXzT_B_N0F71h-15" style="edgeStyle=orthogonalEdgeStyle;rounded=0;orthogonalLoop=1;jettySize=auto;html=1;exitX=1;exitY=0.5;exitDx=0;exitDy=0;fontFamily=Songti TC;" edge="1" parent="1" source="pzJW1ZrKXzT_B_N0F71h-8">
          <mxGeometry relative="1" as="geometry">
            <mxPoint x="180.84148322211365" y="201.75600348578553" as="targetPoint" />
          </mxGeometry>
        </mxCell>
        <mxCell id="pzJW1ZrKXzT_B_N0F71h-8" value="" style="rounded=0;whiteSpace=wrap;html=1;fontFamily=Songti TC;" vertex="1" parent="1">
          <mxGeometry x="130" y="247" width="30" height="20" as="geometry" />
        </mxCell>
        <mxCell id="pzJW1ZrKXzT_B_N0F71h-10" value="" style="rounded=0;whiteSpace=wrap;html=1;fontFamily=Songti TC;" vertex="1" parent="1">
          <mxGeometry x="130" y="275" width="30" height="20" as="geometry" />
        </mxCell>
        <mxCell id="pzJW1ZrKXzT_B_N0F71h-11" value="" style="rounded=0;whiteSpace=wrap;html=1;fontFamily=Songti TC;" vertex="1" parent="1">
          <mxGeometry x="200" y="247" width="30" height="20" as="geometry" />
        </mxCell>
        <mxCell id="pzJW1ZrKXzT_B_N0F71h-12" value="" style="rounded=0;whiteSpace=wrap;html=1;fontFamily=Songti TC;" vertex="1" parent="1">
          <mxGeometry x="200" y="275" width="30" height="20" as="geometry" />
        </mxCell>
        <mxCell id="pzJW1ZrKXzT_B_N0F71h-13" value="" style="endArrow=classic;html=1;rounded=0;entryX=0;entryY=0.25;entryDx=0;entryDy=0;fontFamily=Songti TC;" edge="1" parent="1">
          <mxGeometry width="50" height="50" relative="1" as="geometry">
            <mxPoint x="40" y="255.72" as="sourcePoint" />
            <mxPoint x="120" y="255.72" as="targetPoint" />
          </mxGeometry>
        </mxCell>
        <mxCell id="pzJW1ZrKXzT_B_N0F71h-14" value="" style="endArrow=classic;html=1;rounded=0;entryX=0;entryY=0.75;entryDx=0;entryDy=0;fontFamily=Songti TC;" edge="1" parent="1">
          <mxGeometry width="50" height="50" relative="1" as="geometry">
            <mxPoint x="40" y="285.72" as="sourcePoint" />
            <mxPoint x="120" y="285.72" as="targetPoint" />
          </mxGeometry>
        </mxCell>
        <mxCell id="pzJW1ZrKXzT_B_N0F71h-16" style="edgeStyle=orthogonalEdgeStyle;rounded=0;orthogonalLoop=1;jettySize=auto;html=1;exitX=1;exitY=0.5;exitDx=0;exitDy=0;fontFamily=Songti TC;" edge="1" parent="1">
          <mxGeometry relative="1" as="geometry">
            <mxPoint x="181" y="348" as="targetPoint" />
            <mxPoint x="160" y="284.62" as="sourcePoint" />
          </mxGeometry>
        </mxCell>
        <mxCell id="pzJW1ZrKXzT_B_N0F71h-17" value="执行流1" style="text;html=1;align=center;verticalAlign=middle;resizable=0;points=[];autosize=1;strokeColor=none;fillColor=none;fontFamily=Songti TC;" vertex="1" parent="1">
          <mxGeometry x="47" y="222" width="60" height="26" as="geometry" />
        </mxCell>
        <mxCell id="pzJW1ZrKXzT_B_N0F71h-18" value="执行流2" style="text;html=1;align=center;verticalAlign=middle;resizable=0;points=[];autosize=1;strokeColor=none;fillColor=none;fontFamily=Songti TC;" vertex="1" parent="1">
          <mxGeometry x="47" y="291" width="60" height="26" as="geometry" />
        </mxCell>
      </root>
    </mxGraphModel>
  </diagram>
</mxfile>
